<?xml version="1.0" standalone="no"?>
<!DOCTYPE svg PUBLIC "-//W3C//DTD SVG 20010904//EN"
 "http://www.w3.org/TR/2001/REC-SVG-20010904/DTD/svg10.dtd">

<svg version="1.0" xmlns="http://www.w3.org/2000/svg"
 width="400px" height="50px" viewBox="0 0 21280.000000 3465.000000"
 preserveAspectRatio="xMidYMid meet">

<g transform="translate(0.000000,3465.000000) scale(0.100000,-0.100000)"
fill="#000000" stroke="none">
<path d="M80 26620 l0 -8020 1785 0 1785 0 0 670 0 670 -892 2 -893 3 0 6675
0 6675 893 3 892 2 0 670 0 670 -1785 0 -1785 0 0 -8020z"/>
<path d="M209220 33970 l0 -670 890 0 890 0 0 -6680 0 -6680 -890 0 -890 0 0
-670 0 -670 1785 0 1785 0 0 8020 0 8020 -1785 0 -1785 0 0 -670z"/>
<path d="M31252 33733 c-14 -25 -6662 -13764 -6669 -13780 -4 -10 200 -13
1000 -13 l1005 0 912 1955 912 1955 2851 -2 2850 -3 911 -1952 911 -1953 1002
0 c552 0 1003 3 1003 7 0 6 -6669 13793 -6676 13801 -1 2 -7 -5 -12 -15z
m1187 -6302 c622 -1333 1130 -2426 1128 -2428 -2 -1 -1041 -2 -2310 -1 l-2306
3 1125 2410 c618 1326 1138 2439 1155 2475 l31 65 23 -50 c12 -27 532 -1141
1154 -2474z"/>
<path d="M166408 33648 c-532 -1095 -6628 -13699 -6628 -13703 0 -3 451 -5
1003 -5 l1003 0 911 1953 911 1952 2851 0 2852 0 911 -1952 911 -1953 1005 0
c825 0 1003 2 999 13 -21 55 -6672 13787 -6677 13787 -4 0 -27 -42 -52 -92z
m1210 -6175 l1151 -2468 -2306 -3 c-1268 -1 -2308 -1 -2309 1 -5 5 2298 4937
2306 4937 3 0 525 -1110 1158 -2467z"/>
<path d="M17150 33523 c-396 -16 -895 -86 -1300 -184 -1200 -290 -2314 -909
-3209 -1784 -144 -141 -372 -384 -456 -486 -401 -487 -656 -875 -909 -1377
-635 -1264 -862 -2653 -660 -4052 199 -1385 830 -2689 1802 -3727 124 -132
200 -206 431 -423 134 -125 435 -365 641 -511 664 -471 1429 -830 2215 -1038
1616 -428 3342 -246 4830 509 885 449 1641 1058 2272 1830 774 947 1287 2098
1473 3304 68 440 80 667 80 1494 l0 662 -3455 0 -3455 0 0 -785 0 -785 2560 0
c2462 0 2560 -1 2560 -18 0 -38 -41 -342 -60 -452 -73 -403 -191 -802 -346
-1171 -54 -129 -217 -460 -290 -589 -132 -233 -357 -558 -541 -780 -733 -885
-1747 -1519 -2812 -1760 -175 -39 -398 -76 -581 -97 -223 -25 -762 -25 -990 0
-465 51 -913 160 -1325 322 -158 62 -528 243 -685 335 -667 391 -1264 960
-1695 1615 -488 742 -781 1557 -880 2450 -70 628 -22 1328 135 1955 51 203
179 589 255 770 419 994 1088 1813 1948 2383 666 440 1377 701 2182 798 219
27 693 37 927 20 926 -68 1736 -363 2623 -954 215 -143 519 -366 701 -513
l101 -82 559 559 558 558 -20 22 c-33 38 -316 301 -394 368 -41 35 -88 75
-105 90 -16 14 -82 67 -145 117 -743 588 -1532 979 -2428 1203 -632 159 -1397
232 -2112 204z"/>
<path d="M140251 33520 c-1271 -76 -2451 -479 -3506 -1198 -1353 -922 -2365
-2339 -2789 -3902 -143 -529 -215 -1008 -235 -1563 -81 -2220 934 -4349 2732
-5725 1761 -1348 4046 -1765 6159 -1122 1361 414 2587 1262 3469 2400 941
1215 1449 2692 1449 4210 0 1472 -479 2917 -1354 4085 -497 664 -1054 1197
-1726 1652 -973 658 -2110 1055 -3305 1153 -177 14 -717 20 -894 10z m740
-1570 c599 -46 1170 -193 1713 -442 332 -152 708 -383 998 -613 370 -293 658
-591 985 -1020 73 -96 240 -356 335 -521 378 -660 609 -1389 695 -2190 25
-241 25 -849 0 -1084 -55 -499 -151 -925 -308 -1357 -498 -1368 -1503 -2457
-2794 -3028 -475 -210 -970 -338 -1535 -397 -194 -20 -755 -17 -960 5 -1072
118 -2002 528 -2814 1242 -150 132 -430 419 -528 543 -238 298 -360 471 -501
708 -734 1236 -955 2704 -621 4122 124 527 355 1092 637 1557 290 479 630 885
1037 1240 208 182 320 268 540 414 726 484 1535 760 2420 824 112 8 579 6 701
-3z"/>
<path d="M180205 33524 c-1156 -63 -2228 -448 -3130 -1123 -346 -258 -701
-601 -991 -956 -206 -251 -385 -516 -554 -815 -481 -854 -754 -1814 -820
-2890 -6 -106 -10 -1525 -10 -3982 l0 -3818 895 0 895 0 0 3813 c0 2487 4
3859 10 3947 55 727 222 1357 520 1965 502 1022 1325 1773 2310 2107 229 78
499 138 755 170 168 20 695 17 855 -5 722 -102 1333 -367 1890 -823 139 -114
358 -324 472 -454 602 -685 1000 -1580 1138 -2560 57 -405 54 -127 57 -4312
l3 -3848 896 0 895 0 -4 3863 c-3 3527 -5 3879 -20 4057 -56 649 -164 1186
-346 1722 -399 1176 -1116 2165 -2076 2864 -830 605 -1779 960 -2825 1059
-158 15 -668 27 -815 19z"/>
<path d="M195041 33519 c-1231 -67 -2453 -481 -3475 -1177 -137 -93 -366 -259
-376 -272 -3 -3 -39 -33 -80 -65 -163 -128 -375 -319 -570 -515 -1096 -1095
-1789 -2503 -1979 -4015 -40 -321 -46 -431 -46 -865 0 -454 8 -578 61 -955
251 -1798 1242 -3457 2725 -4563 274 -205 391 -283 654 -437 1470 -862 3208
-1146 4870 -794 835 176 1619 504 2355 984 180 117 407 281 535 386 348 287
613 542 888 855 845 959 1407 2132 1622 3384 61 357 85 631 92 1035 6 353 -3
570 -38 880 -168 1507 -847 2935 -1924 4043 -387 399 -878 791 -1355 1084
-388 237 -756 418 -1165 572 -897 339 -1846 487 -2794 435z m909 -1583 c627
-75 1175 -237 1695 -501 616 -314 1121 -710 1569 -1231 66 -78 128 -150 136
-160 692 -881 1088 -1911 1171 -3042 15 -213 7 -756 -15 -952 -120 -1062 -493
-1996 -1123 -2807 -335 -432 -726 -798 -1178 -1105 -706 -478 -1459 -749
-2335 -840 -166 -17 -744 -17 -910 0 -401 42 -767 118 -1115 234 -516 172
-1056 460 -1480 791 -695 543 -1252 1262 -1605 2072 -235 540 -377 1087 -442
1705 -20 196 -17 893 5 1090 61 540 179 1014 373 1507 57 146 240 522 324 669
421 731 988 1336 1675 1787 716 469 1507 734 2390 801 131 10 737 -3 865 -18z"/>
<path d="M39500 26625 l0 -6685 3763 3 c4116 3 3781 -1 4132 58 845 142 1619
570 2140 1184 560 660 854 1465 882 2420 18 641 -143 1307 -479 1980 -324 648
-788 1196 -1215 1435 l-81 46 81 60 c153 113 374 340 524 539 387 516 638
1137 709 1755 21 183 15 661 -10 870 -78 643 -254 1154 -548 1589 -115 171
-193 267 -332 409 -613 627 -1471 958 -2616 1012 -121 6 -1582 10 -3577 10
l-3373 0 0 -6685z m6900 5092 c557 -84 927 -244 1232 -536 389 -371 589 -950
548 -1591 -21 -328 -88 -592 -211 -835 -54 -105 -149 -253 -202 -313 -140
-160 -280 -280 -430 -371 -297 -179 -651 -285 -1077 -321 -71 -6 -1039 -10
-2542 -10 l-2428 0 0 2000 0 2000 2498 -3 c2302 -3 2506 -4 2612 -20z m100
-5562 c516 -55 933 -224 1305 -530 518 -426 824 -1128 825 -1890 0 -740 -264
-1337 -767 -1731 -361 -284 -846 -452 -1428 -494 -89 -6 -1046 -10 -2642 -10
l-2503 0 0 2335 0 2335 2538 0 c2145 0 2558 -2 2672 -15z"/>
<path d="M52640 29533 c0 -2397 4 -3847 10 -3968 79 -1488 557 -2776 1418
-3819 208 -252 507 -548 764 -759 603 -492 1320 -863 2062 -1066 1113 -305
2289 -273 3376 90 230 76 453 169 695 289 528 261 939 546 1370 950 226 212
496 517 681 770 615 844 1002 1834 1148 2940 64 482 59 171 63 4453 l3 3897
-895 0 -895 0 0 -3772 c0 -2389 -4 -3832 -10 -3933 -66 -1055 -398 -1996 -979
-2770 -41 -55 -77 -102 -81 -105 -3 -3 -41 -48 -85 -100 -121 -145 -374 -393
-525 -513 -585 -468 -1198 -727 -1940 -819 -163 -20 -641 -17 -815 6 -546 70
-1018 236 -1485 521 -129 80 -373 254 -459 330 -342 298 -558 541 -798 900
-392 587 -663 1304 -772 2050 -59 404 -55 87 -58 4328 l-3 3877 -895 0 -895 0
0 -3777z"/>
<path d="M66230 32525 l0 -785 2225 0 2225 0 0 -5900 0 -5900 895 0 895 0 0
5900 0 5900 2225 0 2225 0 0 785 0 785 -5345 0 -5345 0 0 -785z"/>
<path d="M77810 32525 l0 -785 2225 0 2225 0 0 -5900 0 -5900 895 0 895 0 0
5900 0 5900 2230 0 2230 0 0 785 0 785 -5350 0 -5350 0 0 -785z"/>
<path d="M90507 33303 c-4 -3 -7 -3012 -7 -6685 l0 -6678 895 0 895 0 0 6685
0 6685 -888 0 c-489 0 -892 -3 -895 -7z"/>
<path d="M116340 26625 l0 -6685 895 0 895 0 0 1999 0 2000 2398 4 c2438 4
2450 5 2797 43 872 96 1659 374 2295 812 78 54 292 217 336 257 6 5 47 42 90
80 311 278 602 637 815 1010 315 549 504 1141 590 1855 20 164 23 233 23 610
1 281 -3 466 -12 545 -41 379 -98 682 -188 985 -466 1568 -1647 2645 -3311
3019 -280 63 -515 98 -893 133 -91 8 -1026 12 -3427 15 l-3303 4 0 -6686z
m6490 5092 c529 -72 898 -184 1289 -392 850 -452 1411 -1263 1545 -2230 103
-744 -43 -1497 -406 -2098 -482 -798 -1320 -1314 -2358 -1451 -250 -34 -410
-36 -2587 -36 l-2183 0 0 3115 0 3116 2288 -4 c2085 -3 2298 -5 2412 -20z"/>
<path d="M129710 26625 l0 -6685 890 0 890 0 0 6685 0 6685 -890 0 -890 0 0
-6685z"/>
<path d="M147750 33303 c0 -8 6670 -13796 6679 -13805 6 -6 6668 13752 6678
13793 5 19 -15 19 -997 17 l-1003 -3 -2338 -5008 -2337 -5009 -44 94 c-24 51
-1076 2306 -2338 5011 l-2295 4917 -1002 0 c-552 0 -1003 -3 -1003 -7z"/>
<path d="M103420 29075 l0 -1555 -1557 -2 -1558 -3 0 -780 0 -780 1558 -3
1557 -2 0 -1670 0 -1670 895 0 895 0 0 1670 0 1670 1560 0 1560 0 0 785 0 785
-1560 0 -1560 0 0 1555 0 1555 -895 0 -895 0 0 -1555z"/>
<path d="M10 12925 l0 -145 106365 0 106365 0 0 145 0 145 -106365 0 -106365
0 0 -145z"/>
<path d="M201269 8588 c0 -2489 -1 -2642 -17 -2618 -221 325 -502 567 -873
755 -354 180 -676 265 -1056 281 -313 14 -649 -36 -953 -141 -135 -47 -400
-176 -515 -252 -325 -215 -580 -499 -758 -843 -182 -352 -262 -709 -262 -1180
0 -251 11 -368 51 -568 148 -729 622 -1343 1279 -1658 214 -103 418 -164 664
-201 162 -24 549 -24 716 1 320 46 611 142 876 287 113 63 333 211 409 276
104 89 296 288 358 371 l62 83 2 -473 3 -473 288 -3 287 -2 0 4500 0 4500
-280 0 -280 0 -1 -2642z m-1739 -2058 c300 -31 578 -128 834 -289 140 -88 224
-156 355 -284 261 -257 415 -518 506 -857 24 -93 25 -102 25 -447 0 -387 -9
-473 -68 -678 -126 -433 -411 -808 -803 -1052 -544 -340 -1279 -386 -1848
-117 -571 270 -972 772 -1096 1372 -62 299 -53 656 24 960 102 397 348 765
678 1014 296 222 614 343 1003 381 79 8 301 6 390 -3z"/>
<path d="M122860 8938 c-115 -40 -211 -125 -259 -228 -22 -47 -26 -69 -26
-145 1 -111 27 -177 106 -260 146 -154 359 -188 523 -83 72 47 115 95 150 168
29 61 31 73 31 175 0 100 -2 115 -28 167 -37 76 -113 151 -193 188 -91 44
-210 51 -304 18z"/>
<path d="M188188 8941 c-112 -36 -227 -133 -271 -229 -18 -38 -22 -65 -22
-147 0 -89 3 -106 28 -157 39 -80 126 -163 217 -207 70 -34 81 -36 170 -36 86
0 101 3 162 32 90 42 160 110 201 192 30 61 32 72 32 171 0 93 -3 112 -27 162
-31 67 -103 147 -163 183 -94 54 -224 69 -327 36z"/>
<path d="M125810 7855 l0 -1045 -490 0 -490 0 0 -230 0 -230 490 0 490 0 0
-2060 0 -2060 288 2 287 3 3 2058 2 2057 715 0 715 0 0 230 0 230 -715 0 -715
0 0 1045 0 1045 -290 0 -290 0 0 -1045z"/>
<path d="M140540 7855 l0 -1045 -490 0 -490 0 0 -230 0 -230 490 0 490 0 0
-2060 0 -2060 285 0 285 0 0 2060 0 2060 715 0 715 0 0 230 0 230 -715 0 -715
0 0 1045 0 1045 -285 0 -285 0 0 -1045z"/>
<path d="M130970 7010 c-711 -74 -1334 -432 -1761 -1012 -202 -274 -348 -600
-413 -918 -60 -295 -64 -672 -10 -984 127 -736 601 -1372 1269 -1701 231 -114
459 -184 736 -226 176 -27 575 -33 724 -11 315 48 540 119 850 272 153 75 386
217 472 287 l21 18 -111 157 c-62 86 -127 177 -144 202 l-33 46 -65 -50 c-150
-116 -361 -236 -545 -311 -368 -148 -752 -184 -1150 -108 -462 89 -907 388
-1170 787 -78 117 -164 278 -153 285 6 4 3019 1168 3881 1500 63 24 63 14 1
182 -213 577 -608 1064 -1084 1339 -176 101 -453 193 -695 231 -123 19 -494
28 -620 15z m415 -480 c274 -32 506 -119 714 -268 177 -126 406 -373 532 -572
49 -76 114 -199 108 -203 -8 -7 -3394 -1324 -3397 -1322 -1 1 -9 35 -18 76
-21 101 -30 466 -15 595 45 380 178 704 409 994 316 395 767 649 1243 699 120
12 319 13 424 1z"/>
<path d="M178570 7014 c-19 -2 -78 -9 -130 -14 -305 -33 -631 -138 -897 -289
-157 -89 -282 -176 -419 -294 -137 -118 -221 -208 -333 -357 -246 -326 -390
-653 -458 -1040 -35 -198 -43 -556 -19 -765 64 -535 274 -987 634 -1366 385
-404 852 -639 1447 -725 149 -22 561 -25 705 -6 634 85 1188 381 1571 841 297
355 481 782 544 1256 19 143 21 476 5 615 -76 637 -376 1198 -852 1592 -349
289 -732 459 -1191 529 -126 19 -514 34 -607 23z m371 -494 c529 -52 1000
-319 1325 -753 249 -331 376 -696 391 -1122 12 -351 -52 -666 -197 -960 -274
-558 -785 -942 -1386 -1041 -149 -25 -486 -25 -629 -1 -536 93 -1004 407
-1290 868 -190 306 -280 610 -292 989 -21 655 264 1253 792 1660 357 276 821
405 1286 360z"/>
<path d="M205697 7009 c-563 -58 -1022 -261 -1446 -638 -188 -168 -388 -435
-517 -691 -187 -371 -263 -731 -251 -1184 14 -504 137 -905 398 -1294 328
-492 821 -837 1399 -982 218 -55 378 -73 650 -74 262 -1 376 9 571 50 482 101
916 342 1256 697 262 274 473 645 568 1000 98 361 118 764 55 1127 -115 672
-507 1261 -1081 1625 -289 184 -632 306 -994 355 -109 15 -500 21 -608 9z
m424 -489 c135 -14 242 -34 354 -66 618 -181 1132 -716 1298 -1350 44 -166 58
-271 64 -460 11 -366 -48 -661 -192 -952 -146 -295 -332 -518 -591 -711 -304
-226 -641 -342 -1034 -358 -614 -24 -1156 220 -1546 697 -417 510 -544 1228
-332 1867 140 424 429 802 798 1045 349 230 759 330 1181 288z"/>
<path d="M101369 7000 c-362 -31 -695 -118 -984 -260 -249 -121 -401 -227
-593 -415 -306 -298 -508 -653 -611 -1077 -120 -490 -100 -1085 49 -1537 134
-406 390 -780 714 -1045 162 -133 247 -186 461 -291 215 -105 469 -180 735
-217 143 -19 536 -17 680 5 297 45 580 141 848 287 277 150 589 414 755 639
l77 104 0 -482 0 -481 283 2 282 3 0 2315 0 2315 -252 3 -253 2 0 -27 c0 -53
-51 -958 -54 -961 -2 -2 -22 29 -45 69 -74 128 -181 261 -330 409 -335 333
-736 544 -1179 621 -136 23 -418 33 -583 19z m395 -480 c309 -30 595 -124 851
-283 429 -265 737 -666 860 -1120 l26 -98 -3 -407 c-4 -376 -6 -415 -27 -517
-69 -332 -213 -621 -431 -863 -90 -100 -98 -108 -197 -188 -434 -354 -1066
-502 -1642 -384 -641 133 -1207 632 -1426 1260 -77 222 -105 394 -105 662 0
342 54 614 175 873 334 716 1102 1142 1919 1065z"/>
<path d="M111870 7004 c-19 -2 -84 -9 -145 -15 -1044 -104 -1897 -869 -2100
-1884 -40 -200 -49 -308 -49 -555 0 -255 14 -396 60 -595 100 -438 320 -831
640 -1147 193 -190 366 -313 609 -434 414 -204 894 -276 1400 -209 691 92
1329 454 1658 942 l62 93 3 -1595 2 -1595 280 0 280 0 0 3445 0 3445 -290 0
-290 0 -2 -461 -3 -460 -80 105 c-44 58 -134 159 -200 224 -166 164 -261 238
-477 367 -266 161 -564 268 -859 310 -109 16 -425 28 -499 19z m500 -510 c714
-104 1304 -594 1528 -1269 78 -233 87 -304 87 -690 0 -320 -1 -346 -23 -445
-81 -358 -257 -669 -529 -931 -281 -271 -632 -451 -1013 -521 -160 -30 -536
-32 -685 -4 -529 97 -984 396 -1282 841 -67 100 -137 233 -184 353 -220 549
-167 1243 132 1739 158 261 345 459 593 625 267 179 579 290 891 318 127 11
349 4 485 -16z"/>
<path d="M145741 7000 c-367 -31 -700 -119 -996 -264 -458 -225 -804 -568
-1024 -1017 -158 -321 -231 -634 -247 -1056 -14 -357 42 -735 152 -1029 166
-449 484 -851 874 -1107 289 -190 637 -317 1010 -368 144 -20 536 -18 680 4
301 47 569 137 845 286 288 155 597 420 776 663 l59 82 0 -482 0 -482 280 0
280 0 0 2320 0 2320 -250 0 -250 0 0 -22 c0 -13 -11 -223 -25 -468 -14 -245
-25 -461 -25 -480 0 -34 -2 -32 -48 45 -85 143 -160 240 -283 369 -340 354
-769 588 -1220 666 -142 24 -422 34 -588 20z m549 -501 c451 -77 870 -318
1181 -679 146 -170 269 -390 351 -630 l43 -125 3 -370 c4 -385 -2 -481 -39
-650 -100 -455 -371 -849 -764 -1108 -422 -278 -979 -381 -1495 -277 -644 131
-1223 648 -1434 1280 -120 358 -133 803 -35 1195 112 448 412 856 815 1108
220 137 502 237 755 266 52 6 108 13 124 15 75 11 376 -4 495 -25z"/>
<path d="M167602 7000 c-650 -55 -1210 -296 -1600 -690 -376 -379 -582 -820
-654 -1400 -19 -156 -16 -574 5 -729 80 -576 306 -1031 697 -1407 346 -333
795 -542 1320 -615 144 -20 536 -18 680 4 448 69 861 252 1225 544 151 121
333 311 414 432 l36 54 3 -481 2 -482 280 0 280 0 0 2320 0 2320 -250 0 c-141
0 -250 -4 -250 -9 0 -17 -50 -936 -53 -964 -2 -24 -8 -17 -53 60 -151 259
-382 494 -671 686 -271 181 -548 292 -853 342 -114 19 -415 27 -558 15z m518
-495 c268 -45 501 -132 735 -275 231 -141 482 -388 628 -617 96 -151 183 -351
227 -523 21 -82 22 -100 17 -485 -4 -385 -5 -404 -30 -521 -106 -489 -357
-864 -762 -1139 -500 -340 -1211 -421 -1785 -202 -166 63 -413 206 -540 314
-508 429 -759 1023 -711 1678 33 438 146 751 383 1060 323 422 800 678 1358
729 89 8 387 -4 480 -19z"/>
<path d="M192540 7004 c-491 -35 -897 -159 -1259 -384 -154 -95 -265 -184
-396 -315 -316 -316 -528 -720 -613 -1170 -40 -211 -47 -293 -46 -585 0 -243
3 -306 22 -425 65 -415 210 -765 447 -1078 86 -115 105 -136 205 -237 245
-245 538 -425 877 -541 451 -153 1006 -170 1458 -43 434 122 841 365 1153 688
55 57 123 135 151 173 27 37 57 77 65 88 14 18 15 -32 16 -462 l0 -483 280 0
280 0 0 2320 0 2320 -249 0 -249 0 -6 -47 c-3 -27 -15 -244 -27 -483 -11 -239
-23 -442 -26 -450 -2 -9 -19 12 -40 50 -63 112 -203 291 -322 411 -336 336
-778 566 -1217 634 -97 16 -396 27 -504 19z m464 -499 c321 -49 608 -172 896
-383 115 -84 333 -310 422 -437 125 -180 225 -397 278 -605 18 -71 20 -111 20
-414 0 -240 -4 -367 -15 -448 -56 -428 -234 -783 -541 -1078 -225 -216 -495
-367 -804 -449 -467 -124 -956 -84 -1361 112 -580 280 -984 812 -1089 1432
-41 238 -36 537 11 782 113 588 482 1065 1025 1325 186 89 425 155 646 178
114 12 392 4 512 -15z"/>
<path d="M108535 6993 c-263 -18 -545 -98 -825 -234 -423 -207 -786 -542 -961
-889 -23 -45 -43 -80 -45 -78 -3 4 -44 937 -44 1021 l0 57 -247 -2 -248 -3 0
-2315 0 -2315 280 0 280 0 6 1345 c6 1452 3 1374 59 1575 160 575 682 1064
1305 1223 155 39 220 50 389 62 76 5 141 11 143 13 5 6 22 351 23 460 l0 87
-32 -2 c-18 -1 -55 -3 -83 -5z"/>
<path d="M136613 6955 c-814 -103 -1518 -609 -1879 -1350 -111 -226 -186 -498
-215 -773 -15 -151 -6 -552 16 -692 84 -525 316 -969 702 -1340 359 -345 827
-565 1348 -635 676 -91 1336 70 1854 450 50 36 91 69 91 72 0 6 -301 343 -306
343 -2 0 -48 -30 -102 -67 -119 -81 -360 -200 -503 -247 -477 -157 -1026 -121
-1474 99 -465 228 -803 609 -969 1093 -82 241 -112 451 -103 726 12 378 112
704 306 1001 286 438 700 725 1200 833 117 25 143 26 376 27 202 0 269 -4 350
-19 304 -56 629 -197 866 -376 l76 -57 147 188 c80 103 146 191 146 196 0 15
-187 146 -305 214 -266 154 -550 250 -895 304 -147 23 -576 29 -727 10z"/>
<path d="M151440 6959 c-288 -36 -571 -159 -772 -335 -305 -267 -449 -662
-397 -1089 39 -316 163 -528 423 -722 215 -161 441 -271 797 -388 551 -181
762 -281 957 -455 146 -131 211 -320 199 -580 -11 -226 -66 -368 -196 -503
-142 -149 -357 -241 -644 -277 -123 -16 -411 -8 -530 14 -308 57 -630 222
-873 449 l-70 66 -132 -185 -132 -185 88 -91 c194 -201 405 -322 737 -424 265
-81 460 -109 750 -109 245 1 374 16 560 65 520 137 864 499 976 1027 29 137
37 412 15 543 -39 239 -134 407 -332 589 -180 165 -471 312 -922 465 -325 110
-639 245 -763 327 -130 86 -237 197 -288 296 -78 154 -88 400 -22 568 96 248
409 443 779 485 145 16 350 -12 601 -85 141 -40 228 -78 320 -139 70 -47 192
-162 221 -208 l17 -28 126 198 126 197 -57 53 c-127 120 -300 232 -464 303
-166 72 -415 136 -623 159 -105 11 -381 11 -475 -1z"/>
<path d="M173295 6959 c-568 -77 -1011 -438 -1134 -924 -88 -348 -31 -735 143
-980 64 -89 200 -212 330 -299 216 -144 384 -221 761 -346 553 -183 766 -290
947 -475 106 -107 168 -288 168 -487 0 -420 -213 -690 -632 -797 -169 -44
-283 -55 -492 -48 -201 7 -296 23 -474 82 -220 73 -441 203 -618 363 l-102 91
-131 -185 -131 -184 57 -63 c178 -193 404 -336 673 -424 454 -149 879 -181
1296 -98 359 72 636 236 838 495 129 166 225 405 262 652 24 165 15 407 -20
542 -44 171 -104 279 -231 414 -199 213 -474 363 -986 540 -528 182 -770 300
-930 454 -147 140 -202 272 -202 488 -1 198 48 326 167 446 82 81 134 119 243
173 222 112 460 148 708 107 128 -21 345 -78 443 -116 140 -54 333 -200 400
-302 l18 -27 126 197 127 197 -57 53 c-240 226 -554 372 -952 443 -132 24
-496 34 -615 18z"/>
<path d="M184543 6954 c-814 -98 -1527 -614 -1887 -1364 -65 -135 -135 -343
-165 -485 -73 -355 -71 -772 4 -1120 191 -885 886 -1576 1790 -1779 206 -47
341 -60 605 -60 270 0 375 11 600 65 363 86 651 226 959 465 13 10 -5 34 -104
144 -66 73 -136 151 -155 173 l-36 40 -99 -68 c-202 -136 -487 -258 -710 -303
-529 -109 -1068 -6 -1500 286 -213 143 -350 277 -500 486 -83 116 -205 360
-250 498 -128 398 -128 868 2 1263 95 291 243 527 477 761 151 150 260 234
428 328 167 93 405 172 608 201 139 19 418 19 561 -1 319 -44 659 -184 925
-382 l80 -59 147 188 c81 103 147 191 147 196 0 12 -162 130 -255 186 -312
189 -677 308 -1069 346 -147 15 -465 12 -603 -5z"/>
<path d="M211010 6964 c-14 -2 -59 -9 -100 -15 -205 -30 -469 -140 -630 -262
-183 -138 -324 -320 -403 -519 -64 -160 -93 -380 -77 -582 25 -304 138 -533
351 -712 229 -193 463 -312 902 -458 559 -187 761 -286 941 -460 130 -126 186
-281 186 -515 0 -251 -62 -417 -211 -569 -140 -141 -350 -228 -632 -263 -142
-17 -424 -6 -552 21 -313 66 -614 225 -854 448 l-65 60 -128 -180 c-70 -100
-128 -186 -128 -191 0 -6 46 -56 103 -111 218 -216 470 -344 859 -440 190 -47
320 -65 513 -73 546 -20 981 121 1275 417 109 110 171 198 240 342 84 176 120
314 141 528 21 232 -16 470 -101 640 -98 196 -338 410 -600 537 -154 74 -374
164 -525 213 -236 77 -618 233 -740 302 -92 52 -143 91 -228 176 -131 129
-186 271 -187 478 0 171 47 308 143 414 136 150 348 259 602 311 137 28 345
10 587 -51 198 -50 298 -90 413 -166 53 -35 176 -149 213 -198 12 -16 24 -27
26 -25 5 5 192 298 225 353 l24 38 -44 40 c-277 245 -575 382 -989 454 -90 15
-488 29 -550 18z"/>
<path d="M116673 5093 l2 -1778 27 -115 c47 -202 114 -361 221 -520 65 -97
242 -273 336 -334 158 -103 337 -176 521 -210 196 -38 506 -38 723 -1 591 101
1138 437 1434 880 33 50 70 110 82 133 12 24 24 42 26 40 2 -1 10 -199 19
-438 10 -239 19 -454 22 -477 l5 -43 250 0 249 0 0 2320 0 2320 -280 0 -280 0
0 -1262 c0 -771 -4 -1308 -10 -1378 -30 -335 -130 -614 -314 -875 -191 -272
-416 -465 -699 -600 -207 -99 -381 -143 -607 -152 -414 -16 -742 119 -946 391
-59 78 -148 260 -174 356 -51 190 -50 156 -50 1898 l0 1622 -280 0 -280 0 3
-1777z"/>
<path d="M122690 4550 l0 -2320 280 0 280 0 0 2320 0 2320 -280 0 -280 0 0
-2320z"/>
<path d="M188010 4550 l0 -2320 280 0 280 0 0 2320 0 2320 -280 0 -280 0 0
-2320z"/>
<path d="M158710 6639 c-526 -60 -901 -364 -997 -809 -24 -114 -24 -350 1
-474 56 -284 199 -516 563 -913 l82 -90 -97 -58 c-559 -333 -909 -644 -1082
-958 -111 -202 -165 -476 -141 -714 48 -473 372 -850 896 -1041 235 -85 467
-122 770 -122 409 0 700 63 1054 227 165 77 384 236 536 390 62 62 114 113
116 113 3 0 169 -173 369 -385 l365 -386 73 78 c40 43 90 98 112 123 l38 46
-265 279 c-146 154 -316 334 -379 401 l-114 121 69 123 c149 263 259 561 341
925 16 71 28 131 26 133 -2 1 -71 25 -153 51 l-149 47 -37 -167 c-44 -201
-110 -408 -184 -584 -58 -137 -134 -287 -144 -282 -11 4 -1511 1588 -1508
1591 2 2 54 34 114 71 658 402 923 672 1022 1042 23 87 26 116 26 263 0 145
-3 177 -26 262 -90 339 -337 568 -713 662 -173 43 -394 56 -584 35z m338 -290
c334 -36 549 -195 634 -469 19 -64 23 -96 23 -215 -1 -132 -3 -145 -34 -238
-63 -182 -200 -350 -423 -516 -105 -77 -362 -247 -502 -331 l-90 -54 -63 70
c-188 204 -366 433 -434 555 -171 309 -153 684 43 926 131 161 307 243 593
277 65 7 160 6 253 -5z m312 -3049 c430 -454 793 -836 806 -850 l24 -26 -96
-102 c-324 -345 -759 -529 -1294 -549 -635 -23 -1128 208 -1319 618 -55 117
-71 185 -78 325 -23 465 197 786 822 1200 165 109 338 215 346 211 3 -1 358
-373 789 -827z"/>
</g>
</svg>
